<?xml version="1.0" encoding="UTF-8" standalone="no"?><!-- Generator: Gravit.io --><svg xmlns="http://www.w3.org/2000/svg" xmlns:xlink="http://www.w3.org/1999/xlink" style="isolation:isolate" viewBox="0 0 600 300" width="600pt" height="300pt"><defs><clipPath id="_clipPath_WBTXgIxLRJ7Ks576SpzJw0Atjhnwv8kU"><rect width="600" height="300"/></clipPath></defs><g clip-path="url(#_clipPath_WBTXgIxLRJ7Ks576SpzJw0Atjhnwv8kU)"><g><path d=" M 388.57 101.812 C 383.316 103.563 385.191 109.814 385.369 113.369 C 385.547 116.925 383.058 125.282 384.125 128.482 C 385.191 131.683 389.459 135.773 394.615 135.061 C 399.772 134.35 405.283 133.106 406.705 129.016 C 408.128 124.926 409.728 119.948 405.461 117.459 C 401.194 114.97 396.748 111.058 395.148 107.68 C 393.548 104.301 391.237 100.923 388.57 101.812 Z " fill="rgb(46,46,46)"/><path d=" M 419.507 76.209 C 412.328 77.866 408.662 89.899 406.172 95.589 C 403.683 101.279 402.439 112.658 404.039 113.547 C 405.638 114.436 409.372 115.325 410.262 119.059 C 411.151 122.793 414.351 125.815 417.907 124.749 C 421.463 123.682 422.886 121.015 425.731 121.015 C 428.575 121.015 432.842 120.126 434.976 114.792 C 437.11 109.458 437.465 101.279 433.731 96.478 C 429.997 91.678 424.131 75.142 419.507 76.209 Z " fill="rgb(46,46,46)"/><path d=" M 467.336 62.163 C 462.261 61.401 459.157 68.563 454.534 71.408 C 449.912 74.253 443.333 76.742 440.132 83.676 C 436.932 90.611 436.043 99.679 438.355 104.835 C 440.666 109.991 440.666 112.125 443.866 112.303 C 447.067 112.481 451.512 113.014 455.779 111.414 C 460.046 109.814 465.381 112.481 468.936 108.035 C 472.492 103.59 469.825 87.588 470.359 82.432 C 470.892 77.275 470.892 62.696 467.336 62.163 Z " fill="rgb(46,46,46)"/><path d=" M 514.632 70.519 C 509.402 66.528 505.208 76.031 497.207 79.231 C 489.206 82.432 480.138 87.766 476.049 95.589 C 471.959 103.413 471.603 109.458 474.981 112.836 C 478.36 116.215 489.917 117.103 491.873 119.237 C 493.829 121.371 505.208 121.193 511.253 113.369 C 517.299 105.546 521.388 75.675 514.632 70.519 Z " fill="rgb(46,46,46)"/><path d=" M 556.593 104.123 C 552.707 98.866 532.59 109.28 527.256 110.88 C 521.922 112.481 506.631 117.637 505.386 124.571 C 504.141 131.505 508.764 139.862 514.098 140.395 C 519.433 140.929 520.321 148.752 525.122 150.352 C 529.923 151.952 538.991 151.241 545.036 142.351 C 551.081 133.461 559.616 108.213 556.593 104.123 Z " fill="rgb(46,46,46)"/><path d=" M 553.215 150.174 C 551.709 147.413 543.613 152.486 538.991 152.841 C 534.367 153.197 530.99 156.753 532.945 162.265 C 534.901 167.777 539.88 171.867 544.147 170.266 C 548.414 168.666 548.414 166.355 548.414 161.909 C 548.414 157.465 555.349 154.086 553.215 150.174 Z " fill="rgb(46,46,46)"/><path d=" M 555.349 169.377 C 554.13 167.288 545.747 170.266 544.502 173.289 C 543.258 176.311 546.636 179.156 549.303 179.867 C 551.97 180.579 550.725 176.489 553.215 174.533 C 555.704 172.577 556.593 171.511 555.349 169.377 Z " fill="rgb(46,46,46)"/><path d=" M 556.237 179.156 C 555.079 178.191 551.615 180.223 550.725 182.534 C 549.836 184.846 552.859 183.601 553.926 185.379 C 554.992 187.158 558.371 180.934 556.237 179.156 Z " fill="rgb(46,46,46)"/><path d=" M 560.505 189.825 C 558.464 191.261 562.994 193.914 566.194 191.425 C 569.392 188.935 573.836 182.179 573.836 176.311 C 573.836 176.311 565.305 186.446 560.505 189.825 Z " fill="rgb(46,46,46)"/><path d=" M 561.571 187.868 C 561.571 187.868 558.549 189.113 558.726 191.069 C 558.726 191.069 556.237 190.535 557.126 185.201 C 558.016 179.867 561.927 174 564.06 173.822 C 564.06 173.822 560.505 183.068 561.571 187.868 Z " fill="rgb(46,46,46)"/><path d=" M 567.972 192.669 C 566.894 193.316 569.217 194.803 572.421 194.625 C 575.617 194.447 581.841 186.802 580.593 177.912 C 580.593 177.912 573.304 189.469 567.972 192.669 Z " fill="rgb(46,46,46)"/><path d=" M 574.019 185.379 L 570.283 189.647 L 570.283 188.046 C 570.283 188.046 573.304 183.957 574.376 180.579 C 574.376 180.579 574.019 183.779 574.019 185.379 Z " fill="rgb(46,46,46)"/><path d=" M 587 186.624 C 587 186.624 586.46 192.669 584.329 195.514 C 582.199 198.359 578.105 196.403 578.638 194.269 C 579.171 192.136 585.22 189.113 587 186.624 Z " fill="rgb(46,46,46)"/><path d=" M 580.951 190.358 C 580.951 190.358 578.105 192.136 577.755 194.092 L 577.215 192.314 C 577.215 192.314 579.71 189.825 580.418 186.268 C 580.418 186.268 581.484 188.758 580.951 190.358 Z " fill="rgb(46,46,46)"/><path d=" M 486.006 153.553 C 484.939 150.708 479.605 148.397 477.826 150.886 C 476.049 153.375 477.471 159.42 477.826 161.732 C 478.182 164.043 471.782 179.867 470.537 180.757 C 469.292 181.645 464.136 181.645 462.891 184.313 C 461.647 186.98 462.536 190.18 464.491 190.18 C 466.447 190.18 466.981 189.113 466.981 189.113 C 466.981 189.113 470.003 193.203 473.382 191.958 C 476.76 190.714 474.449 186.268 474.449 186.268 C 474.449 186.268 478.182 178.09 480.315 172.933 C 482.449 167.777 484.761 165.643 484.761 165.643 C 484.761 165.643 489.395 164.675 491.517 161.02 C 494.718 155.508 486.006 153.553 486.006 153.553 Z " fill="rgb(46,46,46)"/><path d=" M 492.584 161.732 C 492.584 161.732 490.095 165.466 486.183 167.243 C 486.183 167.243 483.694 168.844 483.694 169.733 C 483.694 170.622 489.206 175.245 493.651 178.267 C 498.096 181.29 500.23 184.313 502.185 183.068 C 504.141 181.824 497.207 174.889 497.385 170.266 C 497.563 165.643 494.184 161.554 492.584 161.732 Z " fill="rgb(46,46,46)"/><path d=" M 476.049 161.909 C 476.049 161.909 473.382 161.376 470.537 162.621 C 467.692 163.866 463.958 163.154 463.069 161.198 C 462.18 159.242 469.115 158.353 471.959 155.686 C 474.804 153.019 477.648 151.419 474.981 149.285 C 472.315 147.152 455.601 141.107 454.534 138.44 C 453.468 135.773 465.914 131.683 474.449 133.639 C 482.982 135.595 494.54 148.219 494.54 151.952 C 494.54 155.686 493.117 157.82 493.117 157.82 C 493.117 157.82 491.34 152.308 487.072 152.486 C 487.072 152.486 483.872 147.863 480.138 148.574 C 476.404 149.285 475.337 154.62 475.693 155.686 C 476.049 156.753 477.471 159.065 476.049 161.909 Z " fill="rgb(46,46,46)"/><path d=" M 485.294 173.822 C 485.294 173.822 494.718 181.112 497.385 182.179 C 497.385 182.179 499.518 184.668 498.274 186.268 C 497.029 187.868 494.362 185.913 493.117 187.691 C 491.873 189.469 488.139 190.714 487.961 187.158 C 487.783 183.601 489.561 181.824 485.294 173.822 Z " fill="rgb(46,46,46)"/><path d=" M 491.34 192.492 C 489.561 191.602 493.651 188.046 494.896 189.113 C 496.14 190.18 495.074 195.692 497.918 198.003 C 500.763 200.315 504.141 204.582 503.074 207.249 C 502.008 209.916 497.918 211.517 497.029 205.471 C 496.14 199.425 493.829 193.736 491.34 192.492 Z " fill="rgb(46,46,46)"/><path d=" M 496.851 189.113 C 496.851 189.113 495.962 193.381 498.096 195.159 C 500.23 196.936 503.252 199.959 503.608 202.804 C 503.964 205.649 504.497 207.783 505.919 205.471 C 507.341 203.159 504.674 197.114 502.185 196.048 C 499.696 194.981 499.874 189.647 499.341 188.402 C 498.808 187.158 497.029 187.868 496.851 189.113 Z " fill="rgb(46,46,46)"/><path d=" M 470.359 193.025 C 468.247 192.086 466.269 199.959 467.87 202.449 C 469.47 204.938 469.825 210.627 469.648 211.694 C 469.47 212.761 474.626 212.05 474.093 208.671 C 473.559 205.293 471.248 202.449 471.959 199.603 C 472.67 196.758 471.959 193.736 470.359 193.025 Z " fill="rgb(46,46,46)"/><path d=" M 467.514 193.381 C 467.514 193.381 465.025 197.648 466.269 201.026 C 467.514 204.404 468.581 209.738 468.403 210.805 C 468.225 211.872 463.78 213.117 464.136 210.45 C 464.491 207.783 466.625 204.226 464.847 201.382 C 463.069 198.537 461.824 194.092 462.536 192.847 C 463.247 191.602 466.091 191.247 467.514 193.381 Z " fill="rgb(46,46,46)"/><path d=" M 506.631 206.805 C 505.808 206.423 504.674 207.783 505.386 208.671 C 506.097 209.56 505.83 213.65 505.119 214.717 C 504.408 215.784 506.364 217.561 507.698 215.25 C 509.031 212.939 509.12 207.96 506.631 206.805 Z " fill="rgb(46,46,46)"/><path d=" M 504.497 208.85 C 503.964 208.227 502.452 208.938 502.808 210.094 C 503.163 211.25 503.252 214.272 502.185 214.983 C 501.119 215.695 502.897 216.762 504.141 215.428 C 504.141 215.428 503.964 214.628 504.586 213.561 C 505.208 212.494 505.564 210.094 504.497 208.85 Z " fill="rgb(46,46,46)"/><path d=" M 501.919 210.538 C 501.919 210.538 501.03 210.094 500.763 210.894 C 500.496 211.694 500.585 213.205 499.607 213.472 C 498.629 213.739 499.874 215.517 501.03 215.25 C 501.03 215.25 501.386 214.184 502.008 213.828 C 502.63 213.472 502.63 211.694 501.919 210.538 Z " fill="rgb(46,46,46)"/><path d=" M 504.586 216.495 C 503.91 216.256 502.363 217.206 502.452 219.606 C 502.452 219.606 504.408 219.695 505.208 218.984 C 506.008 218.273 506.097 217.028 504.586 216.495 Z " fill="rgb(46,46,46)"/><path d=" M 500.496 215.695 C 499.356 215.487 498.629 219.251 498.629 219.251 C 498.629 219.251 500.23 219.695 501.208 218.628 C 502.185 217.561 501.474 215.872 500.496 215.695 Z " fill="rgb(46,46,46)"/><path d=" M 498.362 214.539 C 497.514 214.221 496.14 215.872 495.873 217.028 C 495.873 217.028 497.474 217.739 498.362 217.206 C 499.252 216.673 499.074 214.805 498.362 214.539 Z " fill="rgb(46,46,46)"/><path d=" M 470.359 213.472 C 469.248 213.907 470.181 216.673 469.47 218.095 C 468.758 219.518 469.648 220.496 470.892 220.584 C 472.137 220.673 472.937 217.829 473.47 215.961 C 474.004 214.095 472.403 212.672 470.359 213.472 Z " fill="rgb(46,46,46)"/><path d=" M 468.847 213.739 C 468.847 213.739 468.847 215.339 469.025 216.317 C 469.203 217.295 467.87 219.162 468.136 219.873 C 468.403 220.584 466.091 220.407 465.647 219.606 C 465.203 218.806 466.714 216.406 466.447 215.25 C 466.18 214.095 467.87 212.672 468.847 213.739 Z " fill="rgb(46,46,46)"/><path d=" M 465.736 213.65 C 465.736 213.65 465.292 214.894 465.47 215.606 C 465.647 216.317 465.381 218.539 464.847 219.34 C 464.314 220.139 462.18 220.407 461.824 219.073 C 461.469 217.739 463.958 215.961 463.691 214.894 C 463.424 213.828 464.669 212.672 465.736 213.65 Z " fill="rgb(46,46,46)"/><path d=" M 469.381 221.117 C 468.332 221.351 469.203 225.029 469.203 225.029 C 469.203 225.029 470.981 224.14 471.336 223.163 C 471.693 222.184 470.181 220.94 469.381 221.117 Z " fill="rgb(46,46,46)"/><path d=" M 464.314 224.496 C 464.314 224.496 464.58 221.918 465.558 221.295 C 466.536 220.673 467.781 221.117 468.048 222.184 C 468.314 223.251 466.714 224.585 464.314 224.496 Z " fill="rgb(46,46,46)"/><path d=" M 459.424 222.629 C 459.424 222.629 460.046 220.407 461.202 220.318 C 462.357 220.229 465.381 222.896 459.424 222.629 Z " fill="rgb(46,46,46)"/><path d=" M 390.17 140.084 C 391.501 138.206 388.703 137.017 386.703 135.417 C 384.703 133.816 381.902 129.816 380.035 130.35 C 378.168 130.883 379.502 135.551 379.369 138.084 C 379.235 140.618 378.969 144.218 380.569 144.352 C 382.169 144.485 387.903 143.285 390.17 140.084 Z " fill="rgb(46,46,46)"/><path d=" M 378.835 144.752 C 379.97 142.319 372.301 135.283 371.101 135.417 C 369.901 135.551 369.767 144.084 369.901 146.085 C 370.034 148.085 371.234 147.419 373.101 146.885 C 374.968 146.352 377.902 146.751 378.835 144.752 Z " fill="rgb(46,46,46)"/><path d=" M 363.233 139.818 C 361.955 139.516 362.833 143.818 362.166 145.151 C 361.499 146.485 360.166 149.019 361.899 149.952 C 363.633 150.886 366.567 151.019 367.767 148.619 C 368.967 146.218 365.5 140.351 363.233 139.818 Z " fill="rgb(46,46,46)"/><path d=" M 355.365 153.953 C 354.699 155.286 352.698 156.087 351.231 155.153 C 349.764 154.219 345.631 157.02 346.43 154.887 C 347.231 152.753 350.677 151.204 352.831 150.485 C 354.832 149.819 356.032 152.619 355.365 153.953 Z  M 336.162 159.287 C 335.629 159.954 332.562 160.087 332.562 159.553 C 332.562 159.02 333.514 157.268 335.229 157.554 C 336.029 157.687 336.696 158.62 336.162 159.287 Z  M 358.832 145.018 C 359.099 142.751 355.232 143.152 352.431 143.951 C 349.631 144.752 341.497 149.686 340.163 151.819 C 338.829 153.953 335.096 154.887 331.895 155.553 C 328.695 156.22 326.428 161.287 327.094 161.954 C 327.762 162.621 334.162 162.754 335.896 161.954 C 337.629 161.154 340.163 160.087 342.83 159.82 C 345.497 159.553 348.298 161.421 349.364 160.753 C 350.431 160.087 351.631 158.487 353.365 158.754 C 355.098 159.02 360.155 157.587 360.833 155.42 C 361.499 153.286 358.566 147.285 358.832 145.018 Z " fill="rgb(46,46,46)"/><path d=" M 360.299 157.82 C 360.299 157.82 357.366 160.354 354.699 159.82 C 352.032 159.287 351.898 162.087 349.764 161.954 C 347.631 161.82 344.83 161.287 344.03 161.421 C 343.23 161.554 341.63 163.287 339.63 163.154 C 337.629 163.021 336.162 162.887 336.162 162.887 C 336.162 162.887 333.495 163.688 331.228 163.554 C 331.228 163.554 332.295 165.421 335.629 165.421 C 338.963 165.421 341.764 163.954 343.23 164.888 C 344.697 165.821 351.098 163.154 354.031 164.888 C 356.965 166.621 359.899 166.755 361.899 164.754 C 363.9 162.754 362.7 158.087 360.299 157.82 Z " fill="rgb(46,46,46)"/><path d=" M 361.366 152.219 C 361.366 152.219 362.166 154.887 362.033 157.153 C 362.033 157.153 362.833 158.087 363.099 159.287 C 363.099 159.287 363.233 158.353 364.166 158.353 C 365.1 158.353 366.567 159.02 366.567 159.02 C 366.567 159.02 367.1 154.353 365.766 152.886 C 364.433 151.419 364.433 151.552 363.633 152.353 C 362.833 153.152 362.433 152.086 361.366 152.219 Z " fill="rgb(46,46,46)"/><path d=" M 366.833 152.353 C 366.833 152.353 367.634 155.286 367.767 157.82 C 367.767 157.82 369.234 156.886 370.034 157.82 C 370.834 158.754 372.034 159.02 372.568 158.22 C 373.101 157.42 373.101 152.753 372.034 152.086 C 370.967 151.419 370.167 151.552 369.901 150.886 C 369.633 150.219 368.433 149.952 368.433 150.886 C 368.433 151.819 366.833 152.353 366.833 152.353 Z " fill="rgb(46,46,46)"/><path d=" M 373.234 151.819 C 373.234 151.819 374.168 153.686 373.901 157.687 C 373.901 157.687 374.834 156.753 376.034 157.02 C 377.235 157.287 378.568 157.153 379.102 156.753 C 379.635 156.353 379.235 151.819 378.835 151.019 C 378.435 150.219 377.368 150.886 376.968 150.485 C 376.568 150.086 375.768 148.619 374.968 149.152 C 374.168 149.686 374.434 151.552 373.234 151.819 Z " fill="rgb(46,46,46)"/><path d=" M 380.169 150.485 C 380.169 150.485 381.369 152.886 380.569 155.953 C 380.569 155.953 381.902 154.753 383.103 155.42 C 384.303 156.087 384.836 157.153 386.036 155.553 C 387.236 153.953 386.97 149.686 385.903 149.419 C 384.836 149.152 383.636 149.686 383.636 149.686 C 383.636 149.686 382.702 146.885 381.769 147.152 C 380.835 147.419 381.769 149.552 381.502 150.086 C 381.235 150.619 380.169 150.485 380.169 150.485 Z " fill="rgb(46,46,46)"/><path d=" M 387.37 148.752 C 387.37 148.752 388.836 152.086 388.303 155.02 C 388.303 155.02 389.503 155.686 390.036 154.486 C 390.57 153.286 391.503 153.82 392.837 153.82 C 394.17 153.82 394.571 151.153 393.904 149.419 C 393.237 147.685 391.904 147.818 391.904 147.818 C 391.904 147.818 391.237 145.551 390.17 145.018 C 389.103 144.485 387.903 146.218 388.57 147.152 C 389.237 148.085 387.37 148.752 387.37 148.752 Z " fill="rgb(46,46,46)"/><path d=" M 403.149 146.441 C 401.23 144.589 399.416 148.752 401.194 151.241 C 402.972 153.731 414.284 172.148 413.106 178.623 C 412.751 180.579 414.884 178.978 414.706 174.178 C 414.529 169.377 408.128 151.241 403.149 146.441 Z " fill="rgb(46,46,46)"/><path d=" M 407.95 142.529 C 406.337 144.096 414.529 152.308 416.485 161.198 C 418.44 170.088 419.152 182.357 420.574 182.357 C 421.997 182.357 423.774 167.599 420.574 156.575 C 417.374 145.551 413.996 136.662 407.95 142.529 Z " fill="rgb(46,46,46)"/><path d=" M 420.93 138.795 C 419.994 139.882 427.508 156.398 428.575 164.043 C 429.642 171.689 428.753 182.712 429.642 183.601 C 430.531 184.491 433.554 174.533 432.131 160.842 C 430.709 147.152 426.442 132.394 420.93 138.795 Z " fill="rgb(46,46,46)"/><path d=" M 432.131 134.528 C 430.906 136.413 437.821 145.018 439.955 154.441 C 442.089 163.866 442.266 176.133 442.799 177.2 C 443.333 178.267 445.466 167.066 444.222 154.798 C 442.977 142.529 436.754 127.415 432.131 134.528 Z " fill="rgb(46,46,46)"/><path d=" M 443.333 131.327 C 442.076 132.18 451.325 150.198 452.401 168.488 C 452.579 171.511 455.246 157.642 452.401 145.196 C 449.556 132.75 448.311 127.949 443.333 131.327 Z " fill="rgb(46,46,46)"/><path d=" M 458.624 133.461 C 458.624 133.461 456.135 133.994 455.068 135.595 C 455.068 135.595 452.401 131.327 453.289 129.549 C 454.179 127.772 457.735 128.482 458.624 133.461 Z " fill="rgb(46,46,46)"/><path d=" M 456.135 142.174 C 456.135 142.174 458.09 143.418 459.868 144.129 C 459.868 144.129 461.091 151.515 458.98 160.665 C 458.446 162.976 457.735 148.219 456.135 142.174 Z " fill="rgb(46,46,46)"/><path d=" M 466.269 146.974 C 466.269 146.974 466.836 151.109 466.091 154.086 C 465.558 156.22 468.758 153.197 469.292 148.93 C 469.292 148.93 467.336 146.974 466.269 146.974 Z " fill="rgb(46,46,46)"/><path d=" M 462.357 131.861 C 462.357 131.861 460.224 129.372 460.402 128.66 C 460.58 127.949 462.714 126.349 464.136 127.772 C 465.558 129.194 465.736 131.505 465.736 131.505 C 465.736 131.505 463.78 131.327 462.357 131.861 Z " fill="rgb(46,46,46)"/><path d=" M 400.305 153.908 C 400.305 153.908 395.504 155.331 393.548 155.153 C 391.592 154.975 387.325 163.154 389.814 164.576 C 392.304 165.999 394.793 161.909 396.926 163.154 C 399.06 164.399 402.261 165.11 403.683 163.866 C 405.105 162.621 402.261 154.441 400.305 153.908 Z " fill="rgb(46,46,46)"/><path d=" M 394.437 146.796 C 394.437 146.796 396.571 148.752 396.215 152.13 L 399.416 151.597 C 399.416 151.597 397.815 148.041 399.594 146.618 C 401.372 145.196 403.327 144.129 404.039 144.841 C 404.75 145.551 405.995 147.863 405.995 147.863 C 405.995 147.863 406.35 143.596 404.216 142.707 C 402.083 141.818 400.482 144.663 398.527 143.418 C 396.571 142.174 395.148 141.64 394.437 142.351 C 393.726 143.062 396.215 145.374 394.437 146.796 Z " fill="rgb(46,46,46)"/><path d=" M 400.204 141.964 C 400.204 141.964 403.374 140.306 405.903 142.393 C 405.903 142.393 408.174 140.217 409.759 139.299 C 411.342 138.381 415.282 139.909 416.21 142.026 C 416.21 142.026 416.511 138.998 414.348 137.437 C 412.185 135.876 413.225 134.434 411.987 134.812 C 410.75 135.191 409.703 136.277 409.703 136.277 C 409.703 136.277 407.31 131.875 405.737 133.326 C 404.162 134.778 406.707 137.754 404.945 138.676 C 403.184 139.598 401.07 140.703 400.204 141.964 Z " fill="rgb(46,46,46)"/><path d=" M 407.239 145.374 C 407.239 145.374 407.061 146.618 408.662 147.507 L 406.528 148.752 C 406.528 148.752 407.061 146.441 407.239 145.374 Z " fill="rgb(46,46,46)"/><path d=" M 414.173 134.35 C 414.173 134.35 415.063 135.95 416.485 137.017 C 417.907 138.084 417.907 141.996 417.907 141.996 L 419.507 141.64 C 419.507 141.64 418.796 138.44 419.507 137.55 C 420.219 136.662 423.241 135.239 424.841 136.128 C 426.442 137.017 428.22 139.151 428.22 139.151 C 428.22 139.151 428.931 136.84 426.975 135.417 C 425.019 133.994 424.486 133.461 424.841 131.327 C 425.197 129.194 424.486 129.194 423.064 129.372 C 421.641 129.549 420.397 128.838 418.796 127.949 C 417.196 127.06 416.307 129.905 417.018 131.327 C 417.73 132.75 415.063 133.106 414.173 134.35 Z " fill="rgb(46,46,46)"/><path d=" M 426.442 128.127 C 426.442 128.127 425.908 131.505 427.331 132.75 C 428.753 133.994 429.82 136.483 429.642 138.084 L 431.242 137.55 C 431.242 137.55 430.175 134.706 431.954 132.572 C 433.731 130.439 436.221 131.683 437.11 132.039 C 437.999 132.394 439.599 135.239 439.599 135.239 C 439.599 135.239 441.022 132.572 439.243 131.327 C 437.465 130.083 437.643 130.261 437.288 128.482 C 436.932 126.705 437.288 125.638 435.865 125.638 C 434.443 125.638 432.842 126.349 432.309 125.993 C 431.776 125.638 429.642 121.726 428.575 122.437 C 427.508 123.149 428.931 126.349 428.397 127.06 C 427.864 127.772 426.442 128.127 426.442 128.127 Z " fill="rgb(46,46,46)"/><path d=" M 442.444 134.35 L 441.022 134.706 C 441.022 134.706 442.622 131.861 440.844 130.794 C 439.065 129.727 437.999 128.838 437.999 127.415 C 437.999 125.993 438.355 125.104 439.777 124.749 C 441.199 124.393 439.421 120.659 440.666 119.948 C 441.91 119.237 443.511 123.682 444.933 123.86 C 446.356 124.038 448.133 123.149 448.845 124.926 C 449.556 126.705 448.845 128.305 449.912 129.372 C 450.978 130.439 450.267 132.75 450.267 132.75 C 450.267 132.75 448.667 129.372 447.067 129.016 C 445.466 128.66 442.622 130.261 442.622 130.261 C 442.622 130.261 442.266 131.149 442.444 134.35 Z " fill="rgb(46,46,46)"/><path d=" M 452.579 132.039 C 452.579 132.039 450.623 131.327 451.157 129.194 C 451.69 127.06 450.09 124.926 449.734 123.86 C 449.378 122.793 450.445 122.971 451.157 122.971 C 451.867 122.971 451.334 119.237 452.401 119.059 C 453.468 118.882 453.468 122.259 454.712 122.437 C 455.957 122.615 458.268 123.149 458.98 124.215 C 459.69 125.282 459.461 129.81 459.335 130.439 C 459.157 131.327 458.268 128.838 456.135 127.949 C 454.001 127.06 451.512 129.194 452.579 132.039 Z " fill="rgb(46,46,46)"/><path d=" M 461.291 126.705 C 461.291 126.705 464.136 126.171 465.025 126.705 C 465.914 127.238 466.981 130.794 466.981 130.794 C 466.981 130.794 468.758 126.705 468.403 125.282 C 468.048 123.86 465.736 125.282 465.736 123.149 C 465.736 121.015 465.558 118.348 464.136 118.348 C 462.714 118.348 463.069 122.971 462.18 123.149 C 461.291 123.326 460.58 125.104 461.291 126.705 Z " fill="rgb(46,46,46)"/><path d=" M 469.115 131.327 C 469.115 131.327 470.181 127.238 470.181 125.638 C 470.181 124.038 470.892 125.638 471.959 125.282 C 473.026 124.926 473.382 122.615 474.981 122.615 C 476.582 122.615 473.737 125.46 475.159 126.527 C 476.582 127.594 474.981 131.861 474.981 131.861 C 474.981 131.861 470.537 131.149 469.115 131.327 Z " fill="rgb(46,46,46)"/><path d=" M 476.582 132.394 C 476.582 132.394 476.582 128.838 477.648 128.482 C 478.715 128.127 481.027 124.393 482.627 125.282 C 484.227 126.171 481.738 128.66 482.982 129.727 C 484.227 130.794 482.449 135.061 482.449 135.061 C 482.449 135.061 477.648 132.394 476.582 132.394 Z " fill="rgb(46,46,46)"/><path d=" M 483.872 135.239 C 483.872 135.239 487.606 138.617 488.495 140.929 C 488.495 140.929 491.517 138.795 490.984 137.017 C 490.45 135.239 489.206 135.061 489.917 133.816 C 490.628 132.572 491.517 130.972 490.273 130.616 C 489.028 130.261 487.606 133.106 486.716 133.106 C 485.828 133.106 484.227 133.639 483.872 135.239 Z " fill="rgb(46,46,46)"/><path d=" M 489.917 141.996 C 489.917 141.996 491.517 138.795 492.407 138.617 C 493.295 138.44 494.362 140.217 495.429 139.329 C 496.496 138.44 497.563 137.373 498.451 137.906 C 499.341 138.44 496.674 141.107 497.563 141.64 C 498.451 142.174 498.274 145.73 497.918 147.152 C 497.563 148.574 495.251 149.285 495.251 149.285 C 495.251 149.285 492.229 142.884 489.917 141.996 Z " fill="rgb(46,46,46)"/><path d=" M 499.518 145.018 C 499.518 145.018 500.585 147.685 496.496 150.174 C 496.496 150.174 496.496 152.308 495.784 154.086 C 495.784 154.086 496.674 154.62 498.808 154.62 C 500.94 154.62 503.608 152.308 503.964 151.064 C 504.319 149.819 502.897 147.685 503.252 147.152 C 503.608 146.618 505.386 143.951 504.852 143.241 C 504.319 142.529 501.119 145.196 501.119 145.196 L 499.518 145.018 Z " fill="rgb(46,46,46)"/><path d=" M 505.03 151.419 C 505.03 151.419 504.141 154.62 498.985 156.398 C 498.985 156.398 498.985 157.998 498.629 158.887 C 498.274 159.776 496.496 161.732 497.385 162.621 C 498.274 163.509 500.23 160.132 501.297 161.02 C 502.363 161.909 503.786 161.909 504.319 161.198 C 504.852 160.487 507.164 156.575 509.12 156.22 C 509.12 156.22 508.586 153.908 509.653 153.375 C 510.72 152.841 514.098 150.53 513.032 149.641 C 511.965 148.752 508.231 151.952 507.341 151.597 C 506.453 151.241 505.03 151.419 505.03 151.419 Z " fill="rgb(46,46,46)"/><path d=" M 393.371 167.243 C 391.176 168.497 393.015 172.933 396.571 174.711 C 400.127 176.489 402.439 179.69 402.439 184.135 C 402.439 188.58 404.928 194.447 406.705 192.669 C 408.484 190.892 407.95 188.224 410.617 189.647 C 413.284 191.069 414.351 188.758 413.106 186.802 C 411.862 184.846 406.528 183.068 406.172 178.8 C 405.816 174.533 407.772 168.844 405.461 167.421 C 403.149 165.999 400.482 167.955 398.527 167.066 C 396.571 166.177 394.615 166.533 393.371 167.243 Z " fill="rgb(46,46,46)"/><path d=" M 391.948 173.111 C 391.948 173.111 394.081 176.489 395.86 176.845 C 397.638 177.2 398.527 179.156 398.527 179.156 C 398.527 179.156 395.504 183.246 395.504 184.668 C 395.504 186.091 397.46 188.935 396.038 190.892 C 394.615 192.847 391.948 190.714 389.814 189.825 C 387.68 188.935 385.725 190.002 384.658 188.935 C 383.591 187.868 385.903 186.268 388.57 182.712 C 391.237 179.156 390.704 173.822 391.948 173.111 Z " fill="rgb(46,46,46)"/><path d=" M 409.728 193.559 C 407.614 194.733 409.195 198.181 407.061 201.026 C 404.928 203.871 403.149 208.85 403.506 210.983 C 403.861 213.117 406.883 211.161 407.595 212.405 C 408.305 213.65 410.262 209.916 410.084 206.182 C 409.906 202.449 412.929 199.959 413.284 197.114 C 413.64 194.269 411.329 192.669 409.728 193.559 Z " fill="rgb(46,46,46)"/><path d=" M 407.061 194.803 C 407.061 194.803 407.239 197.648 406.172 199.248 C 405.105 200.848 402.972 205.293 402.616 207.071 C 402.261 208.85 402.794 212.405 402.794 212.405 C 402.794 212.405 401.905 211.872 400.482 212.761 C 399.06 213.65 396.748 213.117 396.748 211.161 C 396.748 209.205 401.727 205.471 401.727 202.449 C 401.727 199.425 401.549 193.203 407.061 194.803 Z " fill="rgb(46,46,46)"/><path d=" M 404.572 214.006 C 402.922 214.359 404.039 218.095 403.149 219.162 C 402.261 220.229 404.928 220.407 405.995 218.628 C 407.061 216.851 407.061 213.472 404.572 214.006 Z " fill="rgb(46,46,46)"/><path d=" M 402.439 214.184 C 402.439 214.184 402.616 216.317 402.261 217.739 C 401.905 219.162 401.016 220.407 399.772 219.695 C 398.527 218.984 399.594 216.673 399.594 215.428 C 399.594 214.184 401.549 213.294 402.439 214.184 Z " fill="rgb(46,46,46)"/><path d=" M 398.349 214.361 C 398.349 214.361 398.349 217.561 397.993 218.628 C 397.638 219.695 395.682 219.518 395.682 218.095 C 395.682 216.673 397.105 213.294 398.349 214.361 Z " fill="rgb(46,46,46)"/><path d=" M 402.794 221.295 C 402.017 220.324 400.66 223.962 400.66 223.962 C 400.66 223.962 404.928 223.962 402.794 221.295 Z " fill="rgb(46,46,46)"/><path d=" M 398.705 220.407 C 397.407 219.724 396.748 223.607 396.748 223.607 C 396.748 223.607 402.083 222.184 398.705 220.407 Z " fill="rgb(46,46,46)"/><path d=" M 395.148 219.695 C 393.527 218.479 393.015 222.718 393.015 222.718 C 393.015 222.718 397.993 221.829 395.148 219.695 Z " fill="rgb(46,46,46)"/><path d=" M 387.503 191.958 C 386.144 189.434 383.947 189.647 380.746 192.669 C 377.546 195.692 375.235 195.159 372.39 195.692 C 369.545 196.225 369.189 199.959 372.212 201.382 C 375.235 202.804 378.257 201.026 379.857 198.537 C 381.458 196.048 388.747 194.269 387.503 191.958 Z " fill="rgb(46,46,46)"/><path d=" M 389.103 193.203 C 389.103 193.203 385.369 196.403 382.88 197.648 C 380.391 198.892 379.324 201.915 376.301 203.337 C 376.301 203.337 377.19 205.826 379.502 203.515 C 381.813 201.204 383.947 198.537 387.325 198.715 C 390.704 198.892 395.86 193.914 389.103 193.203 Z " fill="rgb(46,46,46)"/><path d=" M 375.768 204.226 C 373.789 203.787 373.99 206.004 372.39 206.893 C 370.789 207.783 373.456 209.916 375.057 208.85 C 376.657 207.783 377.368 204.582 375.768 204.226 Z " fill="rgb(46,46,46)"/><path d=" M 371.323 202.626 C 369.892 202.537 371.323 204.226 369.367 205.116 C 367.411 206.004 367.767 207.605 369.189 207.96 C 370.612 208.316 374.168 202.804 371.323 202.626 Z " fill="rgb(46,46,46)"/><path d=" M 368.478 200.315 C 367.105 199.903 368.122 203.159 366.345 203.871 C 364.566 204.582 365.278 206.893 367.055 205.826 C 368.834 204.76 370.256 200.848 368.478 200.315 Z " fill="rgb(46,46,46)"/><path d=" M 371.501 209.205 C 369.505 208.852 369.901 212.939 369.901 212.939 C 369.901 212.939 374.523 209.738 371.501 209.205 Z " fill="rgb(46,46,46)"/><path d=" M 367.589 208.493 C 365.061 206.808 364.744 211.517 364.744 211.517 C 364.744 211.517 370.256 210.272 367.589 208.493 Z " fill="rgb(46,46,46)"/><path d=" M 364.388 206.36 C 364.095 203.564 360.299 207.96 360.299 207.96 C 360.299 207.96 364.744 209.738 364.388 206.36 Z " fill="rgb(46,46,46)"/><path d=" M 510.365 157.287 C 510.365 157.287 506.275 159.954 505.03 162.443 C 505.03 162.443 506.808 162.443 506.631 163.688 C 506.453 164.932 504.319 167.777 505.386 168.133 C 506.453 168.488 507.875 164.221 509.475 165.288 C 511.075 166.355 512.498 165.11 514.276 162.976 C 516.054 160.842 514.809 159.954 516.054 159.242 C 517.299 158.531 516.587 157.109 516.054 156.575 C 515.521 156.042 514.098 158.887 513.387 158.531 C 512.676 158.175 510.365 157.287 510.365 157.287 Z " fill="rgb(46,46,46)"/><path d=" M 516.943 161.909 C 516.943 161.909 514.809 164.754 512.142 167.066 C 512.142 167.066 513.565 168.133 512.676 169.2 C 511.787 170.266 510.187 171.689 510.898 172.756 C 511.609 173.822 513.565 169.91 514.809 170.977 C 516.054 172.044 517.299 171.511 518.899 170.8 C 520.499 170.088 522.632 168.133 522.277 166.888 C 521.922 165.643 525.477 163.688 524.944 162.443 C 524.411 161.198 520.321 164.221 519.433 163.688 C 518.543 163.154 516.943 161.909 516.943 161.909 Z " fill="rgb(46,46,46)"/><path d=" M 522.81 168.844 C 522.81 168.844 526.189 166.533 527.611 166.71 C 529.033 166.888 525.655 169.377 525.122 170.8 C 524.589 172.222 523.344 174.711 522.1 175.423 C 520.855 176.133 518.899 176.489 517.476 177.378 C 516.054 178.267 516.054 175.778 517.299 174.711 C 518.543 173.644 517.476 172.756 517.476 172.756 C 517.476 172.756 521.21 171.333 522.81 168.844 Z " fill="rgb(46,46,46)"/><path d=" M 525.833 172.933 C 525.833 172.933 524.766 174.356 522.1 176.489 C 522.1 176.489 523.166 177.734 522.1 178.978 C 521.033 180.223 521.033 181.112 521.922 181.824 C 522.81 182.534 523.522 178.8 524.589 179.334 C 525.655 179.867 526.722 179.867 528.145 178.267 C 529.567 176.667 529.211 174.889 529.211 174.889 C 529.211 174.889 531.523 171.867 530.812 171.155 C 530.1 170.444 528.323 173.289 527.433 173.289 C 526.544 173.289 525.833 172.933 525.833 172.933 Z " fill="rgb(46,46,46)"/><path d=" M 530.278 176.667 C 530.278 176.667 529.389 178.445 526.9 180.934 C 526.9 180.934 527.789 181.112 527.256 182.534 C 526.722 183.957 526.011 185.557 526.9 185.913 C 527.789 186.268 528.145 182.712 529.389 183.601 C 530.634 184.491 530.812 184.135 532.056 183.424 C 533.301 182.712 534.012 180.757 534.19 179.156 C 534.367 177.556 536.857 175.245 535.79 174.889 C 534.723 174.533 532.234 177.378 532.234 177.378 L 530.278 176.667 Z " fill="rgb(46,46,46)"/><path d=" M 535.257 180.757 C 535.257 180.757 536.679 178.267 538.279 178.445 C 539.88 178.623 537.213 181.824 538.101 182.712 C 538.991 183.601 537.568 186.091 536.324 186.98 C 535.079 187.868 534.012 190.358 532.767 189.647 C 531.523 188.935 534.367 186.091 533.657 185.913 C 532.945 185.735 532.412 184.846 532.412 184.846 C 532.412 184.846 535.079 183.068 535.257 180.757 Z " fill="rgb(46,46,46)"/><path d=" M 539.524 183.601 C 539.524 183.601 539.702 184.135 540.591 184.135 C 541.48 184.135 541.658 181.112 542.725 181.645 C 543.792 182.179 542.013 185.201 542.725 185.735 C 543.435 186.268 540.413 190.18 540.413 190.18 L 538.813 190.18 C 538.813 190.18 537.924 191.958 537.391 191.958 C 536.857 191.958 538.457 189.113 537.924 188.935 C 537.391 188.758 536.679 188.224 536.679 188.224 C 536.679 188.224 538.991 185.735 539.524 183.601 Z " fill="rgb(46,46,46)"/><path d=" M 543.792 186.446 C 543.792 186.446 543.08 188.935 541.124 190.714 C 541.124 190.714 542.369 191.069 541.48 192.847 C 540.591 194.625 541.658 196.048 542.369 194.625 C 543.08 193.203 542.547 191.958 543.613 192.314 C 544.68 192.669 545.747 191.958 546.102 189.825 C 546.459 187.691 546.459 187.691 546.459 187.691 C 546.459 187.691 547.347 185.913 546.636 185.201 C 545.925 184.491 544.325 186.624 543.792 186.446 Z " fill="rgb(46,46,46)"/><path d=" M 547.525 188.402 C 547.525 188.402 547.169 190.358 545.569 192.669 C 545.569 192.669 545.925 193.203 545.925 194.269 C 545.925 195.336 546.281 195.87 546.814 195.87 C 547.347 195.87 546.992 193.203 547.881 193.381 C 548.77 193.559 549.481 193.914 550.014 192.136 C 550.548 190.358 550.192 189.291 550.192 189.291 C 550.192 189.291 551.081 187.868 550.192 187.158 C 549.303 186.446 547.525 188.402 547.525 188.402 Z " fill="rgb(46,46,46)"/><path d=" M 551.437 190.892 C 551.437 190.892 551.081 193.381 549.836 194.447 C 549.836 194.447 551.081 194.625 550.903 195.692 C 550.725 196.758 551.792 198.359 552.148 197.114 C 552.503 195.87 552.859 195.159 553.748 195.336 C 554.637 195.514 554.992 193.025 554.992 193.025 C 553.748 190.714 555.349 189.113 554.282 188.402 C 553.215 187.691 552.859 190.892 552.859 190.892 L 551.437 190.892 Z " fill="rgb(46,46,46)"/><path d=" M 556.059 193.559 C 556.059 193.559 555.704 195.514 555.349 196.403 C 555.349 196.403 556.237 195.692 557.126 197.114 C 558.016 198.537 559.26 197.47 559.26 197.47 C 559.26 197.47 558.904 194.625 559.26 194.092 C 559.616 193.559 556.059 193.559 556.059 193.559 Z " fill="rgb(46,46,46)"/><path d=" M 560.327 194.269 C 560.327 194.269 559.616 196.581 560.327 197.292 C 561.038 198.003 562.283 197.292 562.994 198.003 C 563.705 198.715 564.238 198.003 564.238 198.003 L 563.883 195.159 C 563.883 195.159 561.038 194.981 560.327 194.269 Z " fill="rgb(46,46,46)"/><path d=" M 565.483 195.692 L 565.661 198.181 C 565.661 198.181 567.084 198.181 568.328 198.892 C 569.575 199.603 569.75 196.225 568.86 196.225 C 567.972 196.225 565.483 195.692 565.483 195.692 Z " fill="rgb(46,46,46)"/><path d=" M 570.64 197.114 C 570.64 197.114 570.283 199.248 571.173 199.425 C 572.063 199.603 572.421 198.715 573.661 199.248 C 574.909 199.782 574.551 197.47 574.551 197.47 C 574.551 197.47 573.128 197.47 572.421 197.114 C 571.706 196.758 570.64 197.114 570.64 197.114 Z " fill="rgb(46,46,46)"/><path d=" M 576.332 198.003 C 576.332 198.003 575.974 199.425 576.507 199.782 C 577.04 200.137 578.82 199.782 579.71 199.959 C 580.593 200.137 581.133 198.715 579.885 198.181 C 578.638 197.648 576.332 198.003 576.332 198.003 Z " fill="rgb(46,46,46)"/></g><path d=" M 100.796 151.89 L 100.796 151.89 L 100.796 151.89 Q 100.796 158.502 99.076 163.616 L 99.076 163.616 L 99.076 163.616 Q 97.356 168.731 94.363 172.528 L 94.363 172.528 L 94.363 172.528 Q 91.37 176.325 87.283 178.916 L 87.283 178.916 L 87.283 178.916 Q 83.195 181.507 78.438 183.115 L 78.438 183.115 L 78.438 183.115 Q 73.68 184.724 68.476 185.416 L 68.476 185.416 L 68.476 185.416 Q 63.272 186.108 58.001 186.108 L 58.001 186.108 L 58.001 186.108 Q 52.595 186.108 45.158 185.773 L 45.158 185.773 L 45.158 185.773 Q 37.72 185.438 28.518 184.545 L 28.518 184.545 L 31.913 168.151 L 31.913 168.151 Q 35.129 168.999 38.658 169.602 L 38.658 169.602 L 38.658 169.602 Q 42.187 170.205 45.627 170.563 L 45.627 170.563 L 42.812 135.987 L 42.812 135.987 Q 40.043 136.523 37.184 137.149 L 37.184 137.149 L 37.184 137.149 Q 34.325 137.774 31.287 138.533 L 31.287 138.533 L 28.518 124.239 L 28.518 124.239 Q 33.565 122.72 38.479 121.782 L 38.479 121.782 L 38.479 121.782 Q 43.393 120.844 47.771 120.375 L 47.771 120.375 L 47.771 120.375 Q 52.149 119.905 55.789 119.749 L 55.789 119.749 L 55.789 119.749 Q 59.43 119.593 61.932 119.593 L 61.932 119.593 L 61.932 119.593 Q 70.375 119.593 77.5 121.357 L 77.5 121.357 L 77.5 121.357 Q 84.625 123.122 89.807 126.986 L 89.807 126.986 L 89.807 126.986 Q 94.989 130.85 97.892 136.992 L 97.892 136.992 L 97.892 136.992 Q 100.796 143.135 100.796 151.89 Z  M 64.657 171.635 L 64.657 171.635 L 64.657 171.635 Q 71.849 171.635 77.276 169.893 L 77.276 169.893 L 77.276 169.893 Q 82.704 168.151 86.345 165.403 L 86.345 165.403 L 86.345 165.403 Q 89.985 162.656 91.817 159.283 L 91.817 159.283 L 91.817 159.283 Q 93.648 155.911 93.648 152.605 L 93.648 152.605 L 93.648 152.605 Q 93.648 149.344 92.554 146.016 L 92.554 146.016 L 92.554 146.016 Q 91.46 142.688 88.869 139.963 L 88.869 139.963 L 88.869 139.963 Q 86.278 137.238 82.012 135.406 L 82.012 135.406 L 82.012 135.406 Q 77.745 133.575 71.447 133.307 L 71.447 133.307 L 71.447 133.307 Q 69.615 133.218 67.203 133.307 L 67.203 133.307 L 67.203 133.307 Q 65.148 133.396 62.244 133.575 L 62.244 133.575 L 62.244 133.575 Q 59.341 133.754 55.722 134.156 L 55.722 134.156 L 54.07 171.278 L 54.07 171.278 Q 56.348 171.456 58.291 171.523 L 58.291 171.523 L 58.291 171.523 Q 60.234 171.59 61.664 171.635 L 61.664 171.635 L 61.664 171.635 Q 63.317 171.68 64.657 171.635 Z  M 129.296 171.278 L 145.02 171.367 L 144.395 185.438 L 106.067 182.356 L 106.335 171.01 L 120.675 171.188 L 119.245 132.95 L 106.067 133.307 L 106.067 119.235 L 144.752 120.799 L 144.484 132.101 L 132.959 132.503 L 129.296 171.278 Z  M 173.297 173.288 L 188.843 174.226 L 188.396 183.339 L 153.285 186.287 L 153.285 172.082 L 164.81 172.841 L 163.782 134.692 L 153.285 135.228 L 154.848 119.771 L 184.912 121.156 L 212.474 175.477 L 212.474 133.664 L 202.959 133.932 L 202.959 119.771 L 236.597 122.496 L 235.971 132.771 L 225.831 133.128 L 219.8 186.287 L 211 188.029 L 176.782 134.87 L 173.297 173.288 Z  M 309.009 152.158 L 309.009 152.158 L 309.009 152.158 Q 309.009 159.216 306.999 165.403 L 306.999 165.403 L 306.999 165.403 Q 304.989 171.59 300.745 176.214 L 300.745 176.214 L 300.745 176.214 Q 296.501 180.837 289.845 183.517 L 289.845 183.517 L 289.845 183.517 Q 283.189 186.198 273.897 186.198 L 273.897 186.198 L 273.897 186.198 Q 264.472 186.198 257.793 183.517 L 257.793 183.517 L 257.793 183.517 Q 251.115 180.837 246.893 176.214 L 246.893 176.214 L 246.893 176.214 Q 242.672 171.59 240.706 165.403 L 240.706 165.403 L 240.706 165.403 Q 238.741 159.216 238.741 152.158 L 238.741 152.158 L 238.741 152.158 Q 238.741 145.1 240.885 138.868 L 240.885 138.868 L 240.885 138.868 Q 243.029 132.637 247.385 128.013 L 247.385 128.013 L 247.385 128.013 Q 251.74 123.39 258.352 120.71 L 258.352 120.71 L 258.352 120.71 Q 264.963 118.029 273.897 118.029 L 273.897 118.029 L 273.897 118.029 Q 280.866 118.029 286.204 119.258 L 286.204 119.258 L 286.204 119.258 Q 291.542 120.486 295.429 122.697 L 295.429 122.697 L 295.429 122.697 Q 299.315 124.909 301.929 128.013 L 301.929 128.013 L 301.929 128.013 Q 304.542 131.118 306.128 134.915 L 306.128 134.915 L 306.128 134.915 Q 307.713 138.712 308.361 143.09 L 308.361 143.09 L 308.361 143.09 Q 309.009 147.468 309.009 152.158 Z  M 300.879 152.158 L 300.879 152.158 L 300.879 152.158 Q 300.879 148.406 299.695 145.078 L 299.695 145.078 L 299.695 145.078 Q 298.511 141.75 295.451 139.271 L 295.451 139.271 L 295.451 139.271 Q 292.391 136.791 287.165 135.362 L 287.165 135.362 L 287.165 135.362 Q 281.938 133.932 273.897 133.932 L 273.897 133.932 L 273.897 133.932 Q 267.018 133.932 261.948 135.362 L 261.948 135.362 L 261.948 135.362 Q 256.878 136.791 253.527 139.271 L 253.527 139.271 L 253.527 139.271 Q 250.177 141.75 248.546 145.078 L 248.546 145.078 L 248.546 145.078 Q 246.916 148.406 246.916 152.158 L 246.916 152.158 L 246.916 152.158 Q 246.916 155.911 248.412 159.194 L 248.412 159.194 L 248.412 159.194 Q 249.909 162.477 253.147 164.957 L 253.147 164.957 L 253.147 164.957 Q 256.386 167.436 261.501 168.865 L 261.501 168.865 L 261.501 168.865 Q 266.616 170.295 273.897 170.295 L 273.897 170.295 L 273.897 170.295 Q 281.045 170.295 286.137 168.865 L 286.137 168.865 L 286.137 168.865 Q 291.23 167.436 294.513 164.957 L 294.513 164.957 L 294.513 164.957 Q 297.796 162.477 299.338 159.194 L 299.338 159.194 L 299.338 159.194 Q 300.879 155.911 300.879 152.158 Z " fill="rgb(0,150,136)"/><path d=" M 101.013 206.09 L 101.461 207.06 L 101.461 207.06 Q 100.193 209.448 99.707 211.761 L 99.707 211.761 L 99.707 211.761 Q 99.222 214.075 99.222 218.776 L 99.222 218.776 L 99.222 238.776 L 99.222 238.776 Q 99.222 245.642 95.267 249.821 L 95.267 249.821 L 95.267 249.821 Q 91.312 254 84.521 254 L 84.521 254 L 84.521 254 Q 80.79 254 77.693 252.806 L 77.693 252.806 L 77.693 252.806 Q 74.596 251.612 72.804 250.045 L 72.804 250.045 L 72.804 250.045 Q 71.013 248.478 71.013 247.582 L 71.013 247.582 L 71.013 247.582 Q 71.013 246.239 72.506 246.239 L 72.506 246.239 L 72.506 246.239 Q 75.193 249.075 78.066 250.418 L 78.066 250.418 L 78.066 250.418 Q 80.939 251.761 84.521 251.761 L 84.521 251.761 L 84.521 251.761 Q 90.416 251.761 93.439 248.328 L 93.439 248.328 L 93.439 248.328 Q 96.461 244.896 96.461 238.776 L 96.461 238.776 L 96.461 232.657 L 96.461 232.657 Q 94.297 236.388 90.939 238.478 L 90.939 238.478 L 90.939 238.478 Q 87.581 240.567 83.252 240.567 L 83.252 240.567 L 83.252 240.567 Q 78.775 240.567 75.454 238.403 L 75.454 238.403 L 75.454 238.403 Q 72.133 236.239 70.304 232.321 L 70.304 232.321 L 70.304 232.321 Q 68.476 228.403 68.476 223.254 L 68.476 223.254 L 68.476 223.254 Q 68.476 217.731 70.491 213.366 L 70.491 213.366 L 70.491 213.366 Q 72.506 209 76.424 206.5 L 76.424 206.5 L 76.424 206.5 Q 80.342 204 85.79 204 L 85.79 204 L 85.79 204 Q 87.655 204 89.297 204.261 L 89.297 204.261 L 89.297 204.261 Q 90.939 204.522 93.476 205.045 L 93.476 205.045 L 93.476 205.045 Q 95.864 205.567 97.506 205.828 L 97.506 205.828 L 97.506 205.828 Q 99.148 206.09 101.013 206.09 L 101.013 206.09 Z  M 96.461 223.03 L 96.461 218.776 L 96.461 218.776 Q 96.461 215.418 96.834 212.881 L 96.834 212.881 L 96.834 212.881 Q 97.207 210.343 98.178 208.328 L 98.178 208.328 L 98.178 208.328 Q 96.387 208.254 94.446 207.806 L 94.446 207.806 L 94.446 207.806 Q 92.506 207.358 92.058 207.284 L 92.058 207.284 L 92.058 207.284 Q 89.745 206.761 88.178 206.5 L 88.178 206.5 L 88.178 206.5 Q 86.61 206.239 84.969 206.239 L 84.969 206.239 L 84.969 206.239 Q 78.476 206.239 74.894 211.015 L 74.894 211.015 L 74.894 211.015 Q 71.312 215.791 71.312 223.254 L 71.312 223.254 L 71.312 223.254 Q 71.312 230.045 74.484 234.187 L 74.484 234.187 L 74.484 234.187 Q 77.655 238.328 83.252 238.328 L 83.252 238.328 L 83.252 238.328 Q 87.058 238.328 90.081 236.351 L 90.081 236.351 L 90.081 236.351 Q 93.103 234.373 94.782 230.903 L 94.782 230.903 L 94.782 230.903 Q 96.461 227.433 96.461 223.03 L 96.461 223.03 Z  M 119.745 243.552 L 119.745 243.552 Q 114.446 243.552 111.312 240.418 L 111.312 240.418 L 111.312 240.418 Q 108.178 237.284 108.178 231.985 L 108.178 231.985 L 108.178 231.985 Q 108.178 226.537 111.722 223.366 L 111.722 223.366 L 111.722 223.366 Q 115.267 220.194 121.237 220.194 L 121.237 220.194 L 121.237 220.194 Q 124.67 220.194 127.357 221.164 L 127.357 221.164 L 127.357 221.164 Q 130.043 222.134 131.685 223.851 L 131.685 223.851 L 131.685 218.179 L 131.685 218.179 Q 131.685 212.731 128.812 209.485 L 128.812 209.485 L 128.812 209.485 Q 125.939 206.239 121.088 206.239 L 121.088 206.239 L 121.088 206.239 Q 115.416 206.239 110.864 211.015 L 110.864 211.015 L 110.864 211.015 Q 109.372 211.015 109.372 209.672 L 109.372 209.672 L 109.372 209.672 Q 109.372 208.851 111.051 207.47 L 111.051 207.47 L 111.051 207.47 Q 112.73 206.09 115.491 205.045 L 115.491 205.045 L 115.491 205.045 Q 118.252 204 121.387 204 L 121.387 204 L 121.387 204 Q 127.282 204 130.864 207.881 L 130.864 207.881 L 130.864 207.881 Q 134.446 211.761 134.446 218.179 L 134.446 218.179 L 134.446 240.493 L 134.446 240.493 Q 134.446 243.104 132.655 243.104 L 132.655 243.104 L 132.655 243.104 Q 132.207 243.104 131.685 242.806 L 131.685 242.806 L 131.685 238.03 L 131.685 238.03 Q 129.595 240.567 126.461 242.06 L 126.461 242.06 L 126.461 242.06 Q 123.327 243.552 119.745 243.552 L 119.745 243.552 Z  M 119.446 241.313 L 119.446 241.313 Q 122.431 241.313 125.267 240.082 L 125.267 240.082 L 125.267 240.082 Q 128.103 238.851 129.894 236.612 L 129.894 236.612 L 129.894 236.612 Q 131.685 234.373 131.685 231.463 L 131.685 231.463 L 131.685 229 L 131.685 229 Q 131.685 225.791 128.513 224.112 L 128.513 224.112 L 128.513 224.112 Q 125.342 222.433 120.864 222.433 L 120.864 222.433 L 120.864 222.433 Q 116.312 222.433 113.663 225.045 L 113.663 225.045 L 113.663 225.045 Q 111.013 227.657 111.013 232.06 L 111.013 232.06 L 111.013 232.06 Q 111.013 236.313 113.29 238.813 L 113.29 238.813 L 113.29 238.813 Q 115.566 241.313 119.446 241.313 L 119.446 241.313 Z  M 183.327 204 L 183.327 204 Q 188.775 204 192.095 207.769 L 192.095 207.769 L 192.095 207.769 Q 195.416 211.537 195.416 217.806 L 195.416 217.806 L 195.416 240.493 L 195.416 240.493 Q 195.416 243.104 193.625 243.104 L 193.625 243.104 L 193.625 243.104 Q 193.178 243.104 192.655 242.806 L 192.655 242.806 L 192.655 217.806 L 192.655 217.806 Q 192.655 212.582 190.081 209.448 L 190.081 209.448 L 190.081 209.448 Q 187.506 206.313 183.327 206.313 L 183.327 206.313 L 183.327 206.313 Q 179.894 206.313 177.245 208.44 L 177.245 208.44 L 177.245 208.44 Q 174.595 210.567 173.103 214.373 L 173.103 214.373 L 173.103 214.373 Q 171.61 218.179 171.61 223.179 L 171.61 223.179 L 171.61 240.493 L 171.61 240.493 Q 171.61 243.104 169.819 243.104 L 169.819 243.104 L 169.819 243.104 Q 169.372 243.104 168.849 242.806 L 168.849 242.806 L 168.849 217.806 L 168.849 217.806 Q 168.849 212.582 166.275 209.448 L 166.275 209.448 L 166.275 209.448 Q 163.7 206.313 159.521 206.313 L 159.521 206.313 L 159.521 206.313 Q 156.088 206.313 153.439 208.44 L 153.439 208.44 L 153.439 208.44 Q 150.79 210.567 149.297 214.373 L 149.297 214.373 L 149.297 214.373 Q 147.804 218.179 147.804 223.179 L 147.804 223.179 L 147.804 240.493 L 147.804 240.493 Q 147.804 243.104 146.013 243.104 L 146.013 243.104 L 146.013 243.104 Q 145.566 243.104 145.043 242.806 L 145.043 242.806 L 145.043 207.06 L 145.043 207.06 Q 145.043 204.448 146.834 204.448 L 146.834 204.448 L 146.834 204.448 Q 147.282 204.448 147.804 204.746 L 147.804 204.746 L 147.804 212.358 L 147.804 212.358 Q 149.372 208.627 152.431 206.313 L 152.431 206.313 L 152.431 206.313 Q 155.491 204 159.521 204 L 159.521 204 L 159.521 204 Q 163.849 204 166.909 206.425 L 166.909 206.425 L 166.909 206.425 Q 169.969 208.851 171.088 213.179 L 171.088 213.179 L 171.088 213.179 Q 172.804 208.851 175.976 206.425 L 175.976 206.425 L 175.976 206.425 Q 179.148 204 183.327 204 L 183.327 204 Z  M 219.819 243.552 L 219.819 243.552 Q 214.745 243.552 211.013 241.164 L 211.013 241.164 L 211.013 241.164 Q 207.282 238.776 205.23 234.299 L 205.23 234.299 L 205.23 234.299 Q 203.178 229.821 203.178 223.701 L 203.178 223.701 L 203.178 223.701 Q 203.178 217.731 205.118 213.291 L 205.118 213.291 L 205.118 213.291 Q 207.058 208.851 210.64 206.425 L 210.64 206.425 L 210.64 206.425 Q 214.222 204 219.073 204 L 219.073 204 L 219.073 204 Q 226.088 204 230.081 208.888 L 230.081 208.888 L 230.081 208.888 Q 234.073 213.776 234.073 221.91 L 234.073 221.91 L 234.073 221.91 Q 234.073 223.478 233.775 224.448 L 233.775 224.448 L 206.013 224.448 L 206.013 224.448 Q 206.163 232.209 209.819 236.761 L 209.819 236.761 L 209.819 236.761 Q 213.476 241.313 219.819 241.313 L 219.819 241.313 L 219.819 241.313 Q 226.387 241.313 231.461 236.388 L 231.461 236.388 L 231.461 236.388 Q 232.207 236.388 232.581 236.724 L 232.581 236.724 L 232.581 236.724 Q 232.954 237.06 232.954 237.507 L 232.954 237.507 L 232.954 237.507 Q 232.954 238.478 231.163 239.933 L 231.163 239.933 L 231.163 239.933 Q 229.372 241.388 226.387 242.47 L 226.387 242.47 L 226.387 242.47 Q 223.401 243.552 219.819 243.552 L 219.819 243.552 Z  M 206.013 222.358 L 231.237 221.91 L 231.237 221.91 Q 230.939 214.597 227.804 210.418 L 227.804 210.418 L 227.804 210.418 Q 224.67 206.239 218.924 206.239 L 218.924 206.239 L 218.924 206.239 Q 212.954 206.239 209.558 210.642 L 209.558 210.642 L 209.558 210.642 Q 206.163 215.045 206.013 222.358 L 206.013 222.358 Z " fill="rgb(0,0,0)"/><path d=" M 124.469 99.572 L 124.469 99.572 Q 125.559 99.572 125.559 100.662 L 125.559 100.662 L 125.559 100.662 Q 125.559 101.82 124.095 102.706 L 124.095 102.706 L 124.095 102.706 Q 122.63 103.591 120.518 103.591 L 120.518 103.591 L 120.518 103.591 Q 117.794 103.591 116.329 101.922 L 116.329 101.922 L 116.329 101.922 Q 114.865 100.253 114.865 97.188 L 114.865 97.188 L 114.865 70.621 L 109.892 70.621 L 109.892 70.621 Q 109.687 70.213 109.687 69.872 L 109.687 69.872 L 109.687 69.872 Q 109.687 69.259 110.198 68.918 L 110.198 68.918 L 110.198 68.918 Q 110.709 68.578 111.663 68.578 L 111.663 68.578 L 114.865 68.578 L 114.865 62.106 L 114.865 62.106 Q 114.865 59.722 116.499 59.722 L 116.499 59.722 L 116.499 59.722 Q 116.908 59.722 117.385 59.995 L 117.385 59.995 L 117.385 68.578 L 125.355 68.578 L 125.355 68.578 Q 125.559 68.986 125.559 69.327 L 125.559 69.327 L 125.559 69.327 Q 125.559 69.94 125.048 70.281 L 125.048 70.281 L 125.048 70.281 Q 124.538 70.621 123.584 70.621 L 123.584 70.621 L 117.385 70.621 L 117.385 96.916 L 117.385 96.916 Q 117.385 99.163 118.236 100.356 L 118.236 100.356 L 118.236 100.356 Q 119.088 101.548 120.791 101.548 L 120.791 101.548 L 120.791 101.548 Q 123.243 101.548 124.469 99.572 L 124.469 99.572 Z  M 133.393 103.591 L 133.393 103.591 Q 132.984 103.591 132.508 103.319 L 132.508 103.319 L 132.508 56.384 L 132.508 56.384 Q 132.508 54 134.142 54 L 134.142 54 L 134.142 54 Q 134.551 54 135.028 54.272 L 135.028 54.272 L 135.028 75.526 L 135.028 75.526 Q 136.459 72.12 139.32 70.008 L 139.32 70.008 L 139.32 70.008 Q 142.181 67.896 146.132 67.896 L 146.132 67.896 L 146.132 67.896 Q 151.377 67.896 154.476 71.302 L 154.476 71.302 L 154.476 71.302 Q 157.576 74.708 157.576 80.499 L 157.576 80.499 L 157.576 101.207 L 157.576 101.207 Q 157.576 103.591 155.941 103.591 L 155.941 103.591 L 155.941 103.591 Q 155.532 103.591 155.055 103.319 L 155.055 103.319 L 155.055 80.499 L 155.055 80.499 Q 155.055 75.662 152.637 72.835 L 152.637 72.835 L 152.637 72.835 Q 150.219 70.008 146.132 70.008 L 146.132 70.008 L 146.132 70.008 Q 142.794 70.008 140.273 71.95 L 140.273 71.95 L 140.273 71.95 Q 137.753 73.891 136.39 77.365 L 136.39 77.365 L 136.39 77.365 Q 135.028 80.839 135.028 85.403 L 135.028 85.403 L 135.028 101.207 L 135.028 101.207 Q 135.028 103.591 133.393 103.591 L 133.393 103.591 Z  M 179.851 104 L 179.851 104 Q 175.219 104 171.813 101.82 L 171.813 101.82 L 171.813 101.82 Q 168.407 99.64 166.533 95.553 L 166.533 95.553 L 166.533 95.553 Q 164.66 91.466 164.66 85.88 L 164.66 85.88 L 164.66 85.88 Q 164.66 80.431 166.431 76.377 L 166.431 76.377 L 166.431 76.377 Q 168.202 72.324 171.472 70.11 L 171.472 70.11 L 171.472 70.11 Q 174.742 67.896 179.17 67.896 L 179.17 67.896 L 179.17 67.896 Q 185.573 67.896 189.217 72.358 L 189.217 72.358 L 189.217 72.358 Q 192.862 76.82 192.862 84.245 L 192.862 84.245 L 192.862 84.245 Q 192.862 85.676 192.589 86.561 L 192.589 86.561 L 167.249 86.561 L 167.249 86.561 Q 167.385 93.646 170.723 97.801 L 170.723 97.801 L 170.723 97.801 Q 174.061 101.956 179.851 101.956 L 179.851 101.956 L 179.851 101.956 Q 185.845 101.956 190.478 97.46 L 190.478 97.46 L 190.478 97.46 Q 191.159 97.46 191.499 97.767 L 191.499 97.767 L 191.499 97.767 Q 191.84 98.074 191.84 98.482 L 191.84 98.482 L 191.84 98.482 Q 191.84 99.368 190.205 100.696 L 190.205 100.696 L 190.205 100.696 Q 188.57 102.025 185.845 103.012 L 185.845 103.012 L 185.845 103.012 Q 183.121 104 179.851 104 L 179.851 104 Z  M 167.249 84.654 L 190.273 84.245 L 190.273 84.245 Q 190.001 77.569 187.14 73.755 L 187.14 73.755 L 187.14 73.755 Q 184.279 69.94 179.033 69.94 L 179.033 69.94 L 179.033 69.94 Q 173.584 69.94 170.484 73.959 L 170.484 73.959 L 170.484 73.959 Q 167.385 77.978 167.249 84.654 L 167.249 84.654 Z " fill="rgb(0,0,0)"/></g></svg>