<?xml version="1.0" encoding="UTF-8" standalone="no"?><!-- Generator: Gravit.io --><svg xmlns="http://www.w3.org/2000/svg" xmlns:xlink="http://www.w3.org/1999/xlink" style="isolation:isolate" viewBox="0 0 200 200" width="200pt" height="200pt"><defs><clipPath id="_clipPath_5IrzC0vMSSUHk0rp8vKh5bS4RJEftLHW"><rect width="200" height="200"/></clipPath></defs><g clip-path="url(#_clipPath_5IrzC0vMSSUHk0rp8vKh5bS4RJEftLHW)"><rect width="200" height="200" style="fill:rgb(209,209,209)"/><path d=" M 106.361 130.307 L 106.361 130.307 L 106.361 130.307 Q 102.109 132.185 97.165 132.185 L 97.165 132.185 L 97.165 132.185 Q 89.057 132.185 84.904 129.911 L 84.904 129.911 L 84.904 129.911 Q 84.509 126.846 84.509 122.001 L 84.509 122.001 L 84.509 122.001 Q 84.509 117.156 86.388 111.964 L 86.388 111.964 L 86.388 111.964 Q 88.266 106.773 91.282 103.263 L 91.282 103.263 L 91.282 103.263 Q 94.298 99.753 97.956 96.688 L 97.956 96.688 L 97.956 96.688 Q 101.615 93.622 105.274 90.557 L 105.274 90.557 L 105.274 90.557 Q 108.932 87.492 111.997 84.031 L 111.997 84.031 L 111.997 84.031 Q 118.721 76.22 118.721 63.958 L 118.721 63.958 L 118.721 63.958 Q 118.721 51.697 113.036 44.974 L 113.036 44.974 L 113.036 44.974 Q 107.35 38.25 97.61 38.25 L 97.61 38.25 L 97.61 38.25 Q 87.871 38.25 82.185 44.183 L 82.185 44.183 L 82.185 44.183 Q 76.5 50.115 76.5 58.57 L 76.5 58.57 L 76.5 58.57 Q 76.5 67.024 81.444 74.242 L 81.444 74.242 L 81.444 74.242 Q 79.862 79.087 73.434 81.262 L 73.434 81.262 L 73.434 81.262 Q 71.061 82.152 68.293 82.152 L 68.293 82.152 L 68.293 82.152 Q 50.099 81.955 50 61.981 L 50 61.981 L 50 61.981 Q 50 46.655 60.58 37.459 L 60.58 37.459 L 60.58 37.459 Q 74.918 25 98.055 25 L 98.055 25 L 98.055 25 Q 150.066 25 150.066 63.958 L 150.066 63.958 L 150.066 63.958 Q 150.066 81.856 141.365 91.941 L 141.365 91.941 L 141.365 91.941 Q 135.135 99.258 127.027 104.351 L 127.027 104.351 L 127.027 104.351 Q 118.919 109.443 115.063 112.508 L 115.063 112.508 L 115.063 112.508 Q 106.361 119.628 106.361 130.307 Z  M 79.071 160.662 L 79.071 160.662 L 79.071 160.662 Q 79.071 154.136 84.361 148.995 L 84.361 148.995 L 84.361 148.995 Q 89.651 143.853 96.078 143.853 L 96.078 143.853 L 96.078 143.853 Q 102.505 143.853 106.608 147.709 L 106.608 147.709 L 106.608 147.709 Q 110.712 151.566 110.712 158.388 L 110.712 158.388 L 110.712 158.388 Q 110.712 165.211 104.68 171.045 L 104.68 171.045 L 104.68 171.045 Q 100.132 175 93.902 175 L 93.902 175 L 93.902 175 Q 87.673 175 83.372 171.094 L 83.372 171.094 L 83.372 171.094 Q 79.071 167.189 79.071 160.662 Z " fill="rgb(255,255,255)" vector-effect="non-scaling-stroke" stroke-width="1" stroke="rgb(139,139,139)" stroke-linejoin="miter" stroke-linecap="square" stroke-miterlimit="3"/></g></svg>